<svg xmlns="http://www.w3.org/2000/svg" viewBox="0 0 500 500"><defs><style>.b33b371e-9ac9-4bb9-be4b-dfb582c451b5{isolation:isolate;}.a3c45d47-90ac-43a2-a5df-29686eb75b77,.bcd57b9f-a766-43b6-b062-8966718ce900{fill:#fff;}.a07e6b32-00ef-4ab8-a009-4e69861ed411,.a1e2d5b4-7037-4f6f-9a93-9033a2656e11,.bcd57b9f-a766-43b6-b062-8966718ce900{mix-blend-mode:multiply;}.a07e6b32-00ef-4ab8-a009-4e69861ed411,.bcd57b9f-a766-43b6-b062-8966718ce900{opacity:0.75;}.a07e6b32-00ef-4ab8-a009-4e69861ed411,.a1e2d5b4-7037-4f6f-9a93-9033a2656e11{fill:#121212;}.a1e2d5b4-7037-4f6f-9a93-9033a2656e11{opacity:0.5;}</style></defs><g class="b33b371e-9ac9-4bb9-be4b-dfb582c451b5"><g id="b8b1d99c-1db3-48e6-a0c4-a59467d5db0c" data-name="Layer 1"><path class="bcd57b9f-a766-43b6-b062-8966718ce900" d="M180.31,458.17h-1.4l-1.13,0-2.18-.08-1.21-.06c-.76,0-1.5-.09-2.25-.15H172l-1.08-.09c-.84-.07-1.7-.16-2.56-.25l-.88-.1c-1.17-.14-2.33-.29-3.51-.47l-.81-.13c-.9-.14-1.82-.29-2.76-.46l-1.26-.24c-.8-.15-1.59-.31-2.39-.48l-1.39-.3-2.4-.56-1.38-.34-2.64-.7-1.14-.32c-1.27-.36-2.54-.74-3.83-1.14l-.57-.19c-1.11-.36-2.22-.72-3.33-1.11l-1.33-.47-2.65-1-1.51-.58-2.58-1-1.51-.62-2.8-1.21-1.33-.59c-1.26-.57-2.54-1.15-3.82-1.77l-.15-.06-.37-.19-.5-.24c-1-.52-2.12-1.06-3.17-1.62l-1.22-.67-.91-.51c-.51-.27-1-.56-1.52-.84l-1.83-1.1-.76-.47-.91-.56c-.86-.54-1.71-1.11-2.55-1.68l-.19-.13-.59-.39c-1-.66-1.88-1.34-2.8-2l-.32-.23a91,91,0,0,1-23.37-25.72c-2-.52-4-1.1-6-1.75-.87-.28-1.78-.58-2.7-.9l-.93-.33c-1.12-.39-2.26-.82-3.43-1.27l-.69-.27c-16-6.36-29.23-14.42-39.18-24-17.3-16.63-25.15-38.05-22.72-62a91.77,91.77,0,0,1,8.55-30.22c2.41-6.65,18.09-43.49,78.87-74.34a421.12,421.12,0,0,0,86.34-58.74c1.85-1.64,3.69-3.31,5.45-5,3.13-2.91,5.25-5,6.24-6l.1-.1c21.36-31.63,28.65-54.13,31.1-64.81l.25-1.11.22-1.09c.05-.22.1-.47.14-.71A10.69,10.69,0,0,1,233.49,66h.23l.27,0a10.75,10.75,0,0,1,10.11,9.15l.33,2.23c4.19-11.06,7-20.19,8.45-25.12l.75-2.64a10.59,10.59,0,0,1,1.47-3.16A10.72,10.72,0,0,1,274,48.85C278,59.62,291.76,97.16,303.75,128l.67,1.68.07.15,0,.12c.53,1.28,1.13,2.67,1.8,4.16.1.14.2.27.29.42l1.2,1.76.8,1.13c.59.82,1.26,1.74,2,2.75l1.23,1.61a192.33,192.33,0,0,0,82.73,60.93c37,14,60.15,32.8,73.07,46.12.82.84,1.61,1.67,2.36,2.48s1.27,1.39,1.87,2.06l.25.29c.54.6,1.07,1.21,1.58,1.81l.22.25c.83,1,1.58,1.9,2.29,2.78l.29.36,1.15,1.48c.59.76,1.13,1.48,1.63,2.16.27.38.55.75.8,1.12,1,1.43,1.93,2.8,2.72,4.06l.42.68c.57.95.85,1.47.85,1.47a88.65,88.65,0,0,1,5.41,13.26c.11.34.22.7.34,1.06.43,1.39.85,2.82,1.25,4.27l.27,1c.25.93.49,1.92.72,2.93l.21.94c.41,1.83.78,3.71,1.08,5.57.55,3.32.93,6.65,1.14,9.9,1.17,18.85-3.32,35.85-13.36,50.54-12.78,18.69-34.31,33-64,42.4-1.21.39-2.4.75-3.58,1.09l-.82.24q-1.77.51-3.51,1l-.18,0c-1.1.28-2.22.56-3.34.82l-.67.15c-1.15.26-2.31.51-3.45.74l-.16,0c-1.13.23-2.25.43-3.37.62l-.33.06a106.43,106.43,0,0,1-17.33,1.49h0a87.21,87.21,0,0,1-12.54-.89A119.58,119.58,0,0,1,334.41,435l-.17.09-.7.43-.8.26-.11,0C328.8,437.28,296.82,449,253.35,449a237.38,237.38,0,0,1-28.09-1.66q-1.6.84-3.24,1.62l-.13.07c-.72.34-1.41.66-2.11,1l-.16.07c-2.44,1.09-4.89,2.05-7.34,2.9l-.18.06c-.77.27-1.53.52-2.3.76l-.53.16c-.67.21-1.36.42-2.07.62l-.61.17c-.72.2-1.46.39-2.2.58l-.5.12c-1.85.46-3.74.86-5.62,1.2l-.56.1-2.29.38-.88.12c-.68.1-1.38.19-2.08.27l-1,.11-2.17.22-.91.08-2.67.17-.39,0c-1.09.05-2.16.09-3.24.1Z"/><path class="a3c45d47-90ac-43a2-a5df-29686eb75b77" d="M475.3,274.53S454.69,236.1,391.06,212c-57.3-21.69-87.34-63.8-92.75-72a.38.38,0,0,0-.33-.18c-1.35-2.94-2.55-5.73-3.55-8.29-12.18-31.3-26.38-69.94-29.81-79.29a.72.72,0,0,0-1.36.06,347.06,347.06,0,0,1-23.61,60.74q-2.6-17-5.45-36.45a.7.7,0,0,0-1.38-.06c-1.89,10.07-8.92,35.84-34.27,73-.09,0-.19,0-.27,0-5.83,5.89-43.21,42.43-100.61,71.57C35.06,253,23.5,290.53,23.5,290.53s-37.57,69.36,48.16,103.08A102.61,102.61,0,0,0,88,398.53c7.64,14.16,19.78,27,38.61,36,45.54,21.92,77.78,13.33,96.75,2.38,58.64,7.9,105.2-10.24,106-10.57h0c.44-.22,18.87-9.58,34.45-30.25,13.53,3.15,30.07,2.5,50.32-3.94C520.09,358.44,475.3,274.53,475.3,274.53Z"/><path class="a1e2d5b4-7037-4f6f-9a93-9033a2656e11" d="M234.2,76.64a.7.7,0,0,0-1.38-.06c-2.58,13.76-14.71,56.79-70.12,118.1-67.92,75.14-78,101.15-78,101.15S48.54,397,126.57,434.55c76.41,36.78,115.41-12.33,117-14.39a.5.5,0,0,1,.13-.12c2.36-1.65,52-38.5,13.4-199.33v0C257,220.26,247.51,167.28,234.2,76.64Z"/><path class="a1e2d5b4-7037-4f6f-9a93-9033a2656e11" d="M198.89,149.89a.35.35,0,0,0-.61-.29c-5.83,5.89-43.21,42.43-100.61,71.57C35.06,253,23.5,290.53,23.5,290.53s-37.57,69.36,48.16,103.08,107.9-71.29,107.9-71.29,6.74-30.2,6.26-62.3C185.37,230.15,197.24,159.57,198.89,149.89Z"/><path class="a1e2d5b4-7037-4f6f-9a93-9033a2656e11" d="M264.62,52.29a.72.72,0,0,0-1.36.06c-3.49,12.56-22.61,76.51-57.69,108.13-38.79,35-75.19,109.88-75.62,110.78h0C129.52,272.36,86,385.59,168,421.54c81.8,35.88,160.27,5.24,161.34,4.82h0c1-.51,101.72-51.64,30.35-181.75l0,0c-.61-.93-51.37-77.31-65.26-113C282.25,100.28,268.05,61.64,264.62,52.29Z"/><path class="a07e6b32-00ef-4ab8-a009-4e69861ed411" d="M298.31,140.05a.46.46,0,0,0-.83.29l5.86,160.79s4.82,124.75,110.79,91S475.3,274.53,475.3,274.53,454.69,236.1,391.06,212C333.76,190.33,303.73,148.22,298.31,140.05Z"/></g></g></svg>